
<svg width="100" height="100" viewBox="0 0 100 100" fill="none" xmlns="http://www.w3.org/2000/svg">
  <defs>
    <style>
      path { fill: #000000; }
      @media (prefers-color-scheme: dark) { path { fill: #ffffff; } }
    </style>
  </defs>
  <path d="M0 88.235V100h17.995c-2.453-3.026-4.029-6.49-4.726-10.395l-.249-1.37H0Zm98.809-42.583c.402.22.8.443 1.191.669V100H81.773c2.06-3.113 3.09-6.62 3.09-10.52v-.124c0-6.06-2.407-10.791-7.221-14.194-4.732-3.487-12.7-6.392-23.907-8.716L34.81 62.71C20.252 59.772 8.649 55.173 0 48.914V0h21.292c-1.53 2.755-2.295 5.854-2.295 9.295v.124c0 5.645 2.407 10.21 7.221 13.697 4.815 3.486 12.368 6.267 22.661 8.342l19.05 3.86c12.535 2.49 22.828 5.935 30.88 10.334ZM100 11.66V0H79.385c2.032 2.92 3.318 6.309 3.86 10.166l.124 1.495H100Z"></path>
</svg>