<svg width="100" height="100" viewBox="0 0 100 100" fill="none" xmlns="http://www.w3.org/2000/svg">
  <defs>
    <style>
      path { fill: #000000; }
      @media (prefers-color-scheme: dark) { path { fill: #ffffff; } }
    </style>
  </defs>
  <path d="M0 88.2354V100H17.9955C15.5417 96.9742 13.9662 93.5091 13.269 89.605L13.02 88.2354H0Z"/>
  <path d="M98.8086 45.6523C99.211 45.8722 99.6082 46.095 100 46.3207V100H81.7735C83.8334 96.8873 84.8633 93.3808 84.8633 89.4805V89.356C84.8633 83.2964 82.4561 78.5649 77.6416 75.1616C72.9102 71.6753 64.9414 68.77 53.7354 66.4458L34.8096 62.7104C20.2521 59.7716 8.6489 55.1727 0 48.9138V0H21.2917C19.7616 2.75537 18.9966 5.85367 18.9966 9.29492V9.41943C18.9966 15.064 21.4038 19.6294 26.2183 23.1157C31.0327 26.6021 38.5864 29.3828 48.8794 31.458L67.9297 35.3179C80.4639 37.8081 90.7568 41.2529 98.8086 45.6523Z"/>
  <path d="M100 11.6606V0H79.3852C81.4167 2.91974 82.7032 6.30858 83.2446 10.1665L83.3691 11.6606H100Z"/>
</svg>
